<svg width="114" height="306" xmlns="http://www.w3.org/2000/svg" xmlns:xlink="http://www.w3.org/1999/xlink" version="1.1">

 <g>
  <title>Layer 1</title>
  <g id="svg_1">
   <path id="svg_2" d="m39.38,69.9993l35,0l0,13.125l-35,0l0,-13.125z"/>
   <path id="svg_3" d="m17.5,109.3793l96.25,0l0,-61.25l-35,39.375l-43.75,0l-35,-39.375l0,61.25l17.5,0z"/>
   <path id="svg_4" d="m0,225.3093c0,47.117 56.875,80.938 56.875,80.938s56.875,-33.82 56.875,-80.938c0,-27.477 -8.6836,-73.941 -22.137,-103.26l22.137,-8.3008l-113.75,0l22.137,8.3008c-13.457,29.32 -22.137,75.785 -22.137,103.26z"/>
   <path id="svg_5" d="m56.88,24.4293c0,1.0039 -0.81641,1.8203 -1.8242,1.8203l-0.72656,0c-1.0078,0 -1.8242,-0.81641 -1.8242,-1.8203l0,-22.609c0,-1.0078 0.81641,-1.8203 1.8242,-1.8203l0.72656,0c1.0078,0 1.8242,0.8125 1.8242,1.8203l0,22.609z"/>
   <path id="svg_6" d="m43.76,54.6893c0,1.207 -0.98047,2.1875 -2.1875,2.1875s-2.1875,-0.98047 -2.1875,-2.1875l0,-13.125c0,-1.207 0.98047,-2.1875 2.1875,-2.1875s2.1875,0.98047 2.1875,2.1875l0,13.125z"/>
   <path id="svg_7" d="m74.38,46.2993c0,1.0078 -0.81641,1.8242 -1.8203,1.8242l-0.73438,0c-1.0039,0 -1.8203,-0.81641 -1.8203,-1.8242l0,-18.23c0,-1.0039 0.81641,-1.8203 1.8203,-1.8203l0.73438,0c1.0039,0 1.8203,0.81641 1.8203,1.8242l0,18.2261z"/>
   <use id="svg_8" xlink:href="#w" y="503.1243" x="-223.12"/>
   <use id="svg_9" xlink:href="#d" y="503.1243" x="-207.06531"/>
   <use id="svg_10" xlink:href="#a" y="503.1243" x="-196.28016"/>
   <use id="svg_11" xlink:href="#c" y="503.1243" x="-181.44032"/>
   <use id="svg_12" xlink:href="#b" y="503.1243" x="-166.6825"/>
   <use id="svg_13" xlink:href="#a" y="503.1243" x="-156.22547"/>
   <use id="svg_14" xlink:href="#m" y="503.1243" x="-141.38953"/>
   <use id="svg_15" xlink:href="#l" y="503.1243" x="-118.11219"/>
   <use id="svg_16" xlink:href="#k" y="503.1243" x="-102.45594"/>
   <use id="svg_17" xlink:href="#j" y="503.1243" x="-80.58094"/>
   <use id="svg_18" xlink:href="#e" y="503.1243" x="-64.82703"/>
   <use id="svg_19" xlink:href="#i" y="503.1243" x="-49.79578"/>
   <use id="svg_20" xlink:href="#v" y="503.1243" x="-34.22547"/>
   <use id="svg_21" xlink:href="#u" y="503.1243" x="-19.96375"/>
   <use id="svg_22" xlink:href="#t" y="503.1243" x="-12.46766"/>
   <use id="svg_23" xlink:href="#s" y="503.1243" x="9.6964"/>
   <use id="svg_24" xlink:href="#f" y="503.1243" x="26.37219"/>
   <use id="svg_25" xlink:href="#c" y="503.1243" x="41.9425"/>
   <use id="svg_26" xlink:href="#b" y="503.1243" x="56.70422"/>
   <use id="svg_27" xlink:href="#b" y="503.1243" x="67.16125"/>
   <use id="svg_28" xlink:href="#c" y="503.1243" x="77.61828"/>
   <use id="svg_29" xlink:href="#h" y="503.1243" x="92.38"/>
   <use id="svg_30" xlink:href="#f" y="503.1243" x="105.34875"/>
   <use id="svg_31" xlink:href="#c" y="503.1243" x="120.91906"/>
   <use id="svg_32" xlink:href="#d" y="503.1243" x="135.68078"/>
   <use id="svg_33" xlink:href="#g" y="503.1243" x="146.46984"/>
   <use id="svg_34" xlink:href="#a" y="503.1243" x="153.96593"/>
   <use id="svg_35" xlink:href="#a" y="503.1243" x="168.80187"/>
   <use id="svg_36" xlink:href="#r" y="524.9993" x="-223.12"/>
   <use id="svg_37" xlink:href="#d" y="524.9993" x="-213.60438"/>
   <use id="svg_38" xlink:href="#e" y="524.9993" x="-202.81531"/>
   <use id="svg_39" xlink:href="#q" y="524.9993" x="-187.78797"/>
   <use id="svg_40" xlink:href="#b" y="524.9993" x="-157.37781"/>
   <use id="svg_41" xlink:href="#f" y="524.9993" x="-146.92078"/>
   <use id="svg_42" xlink:href="#a" y="524.9993" x="-131.34656"/>
   <use id="svg_43" xlink:href="#p" y="524.9993" x="-108.89735"/>
   <use id="svg_44" xlink:href="#e" y="524.9993" x="-90.58875"/>
   <use id="svg_45" xlink:href="#i" y="524.9993" x="-75.56141"/>
   <use id="svg_46" xlink:href="#o" y="524.9993" x="-59.98719"/>
   <use id="svg_47" xlink:href="#n" y="524.9993" x="-36.79969"/>
   <use id="svg_48" xlink:href="#d" y="524.9993" x="-20.76453"/>
   <use id="svg_49" xlink:href="#e" y="524.9993" x="-9.97938"/>
   <use id="svg_50" xlink:href="#g" y="524.9993" x="5.05187"/>
   <use id="svg_51" xlink:href="#a" y="524.9993" x="12.54797"/>
   <use id="svg_52" xlink:href="#h" y="524.9993" x="27.3839"/>
   <use id="svg_53" xlink:href="#b" y="524.9993" x="40.35265"/>
  </g>
 </g>
</svg>